<svg preserveAspectRatio="none" width="100%" height="100%" overflow="visible" style="display: block;" viewBox="0 0 196 196" fill="none" xmlns="http://www.w3.org/2000/svg">
<g id="Frame 2147226957" filter="url(#filter0_di_0_25)">
<rect x="48" y="48" width="100" height="100" rx="4" fill="var(--fill-0, #EE6019)" fill-opacity="0.75" shape-rendering="crispEdges"/>
<g id="Vector">
<path d="M124.61 103.002L125.657 103.227C125.507 96.1963 122.366 90.6615 119.225 87.1462C116.682 84.2293 114.064 82.7334 112.269 81.3872L112.119 76.75C112.119 75.1793 111.521 74.7305 110.249 74.8801C109.576 74.9549 108.305 75.1793 106.958 75.6281C106.36 75.8524 104.789 76.6004 104.789 76.6004L104.341 74.8801C103.967 73.6086 102.62 73.9826 101.499 74.3566C100.377 74.8053 98.7312 75.6281 96.9361 77.4231L95.2907 79.3677C94.2436 79.8165 93.1217 80.4148 92.0746 81.1628C88.7089 83.5562 87.0634 85.8748 85.4179 88.4177C84.8196 89.3153 83.6977 90.8111 82.4262 92.0078C80.332 93.8777 77.3402 95.7475 74.4981 95.8223C73.3014 95.8971 72.4787 95.2987 71.7307 95.3735C71.0576 95.5231 70.4592 96.1215 70.3845 96.9442C70.0853 99.3376 71.5064 100.385 72.1795 102.778C72.5535 104.05 72.7778 105.77 72.6283 107.714C72.5535 108.836 73.1518 109.809 74.7225 109.883C75.994 109.958 78.8361 109.659 79.5093 109.659C79.6588 109.659 79.958 109.734 80.0328 109.734C80.4816 110.781 80.0328 112.875 81.6035 113.474C82.8002 113.922 83.4733 113.025 85.4179 112.576C87.4374 111.978 89.8308 112.202 90.8031 112.277C93.4208 112.426 96.1882 112.576 101.274 111.978C102.62 111.753 104.864 112.052 107.033 112.8C109.651 113.623 112.269 115.194 114.812 117.064C116.607 118.485 117.729 119.831 118.402 122C120.122 121.177 123.114 118.335 124.46 113.249C125.507 108.911 125.208 105.62 124.61 103.002ZM118.402 116.166C114.363 112.352 109.95 110.407 105.388 109.659L103.593 109.36C104.415 108.612 105.313 106.967 105.238 105.396C105.238 104.05 105.014 104.274 104.864 104.498C104.042 105.545 102.77 106.518 101.424 107.415C98.2824 109.21 96.1882 109.659 91.9998 109.734L89.8308 109.659C86.0911 109.659 84.8944 110.108 83.4733 110.706L82.501 111.08C82.2766 110.706 81.0799 107.714 86.3155 107.415L88.5593 107.266C90.4291 107.116 92.2989 106.667 92.8973 105.845C94.2436 104.424 92.8973 102.778 91.7006 103.227L91.3266 103.376L90.8779 103.676C88.3349 101.656 85.5675 97.6173 85.7171 93.1297C85.7171 92.0826 84.2212 94.3264 84.1465 97.393C84.0717 100.534 84.8944 103.152 86.4651 105.396L84.1465 105.77C83.6977 105.919 83.0246 105.77 81.9774 105.097C80.332 104.05 79.7336 102.554 79.6588 102.255C79.4345 101.806 79.2101 104.349 80.706 106.892C78.8361 107.266 75.62 107.565 75.246 107.34C75.3956 102.778 73.2266 99.562 72.9274 98.5149V97.9165L73.3762 97.8417C74.3485 97.8417 78.4622 98.2905 82.6506 94.7004C86.4651 91.5591 87.9609 87.969 91.6258 84.9024C93.4208 83.4066 95.3655 82.0603 97.9085 81.1628C98.7312 80.8636 100.152 80.5644 100.227 80.5644L100.152 80.714C99.0304 82.9578 100.9 83.8553 101.723 82.7334L102.022 82.3595C103.144 80.0409 104.415 78.545 107.258 77.4231C108.006 77.0491 109.576 76.6004 110.249 76.6752C110.399 76.6752 110.549 76.8247 110.549 77.0491C110.773 79.2181 111.147 85.6504 106.51 87.4454C105.163 87.8194 106.659 88.1934 107.632 88.1186C109.875 87.969 111.446 86.3983 112.119 84.5285C114.587 86.0991 120.346 91.1851 121.169 100.235C121.842 106.144 120.571 112.501 118.402 116.166Z" fill="black"/>
<path d="M90.9527 89.5397C89.8308 89.5397 88.6341 90.6616 88.6341 92.1575C88.6341 93.429 89.4568 94.7004 90.6535 94.7004C91.9998 94.7752 93.1217 93.6533 93.1217 92.3071C93.1965 90.8112 92.0746 89.4649 90.9527 89.5397Z" fill="black"/>
<path fill-rule="evenodd" clip-rule="evenodd" d="M118.402 116.166C114.363 112.352 109.95 110.407 105.388 109.659L103.593 109.36C104.415 108.612 105.313 106.967 105.238 105.396C105.238 104.05 105.014 104.274 104.864 104.498C104.042 105.545 102.77 106.518 101.424 107.415C98.2824 109.21 96.1882 109.659 91.9998 109.734L89.8308 109.659C86.0911 109.659 84.8944 110.108 83.4733 110.706L82.501 111.08C82.2766 110.706 81.0799 107.714 86.3155 107.415L88.5593 107.266C90.4291 107.116 92.2989 106.667 92.8973 105.845C94.2436 104.424 92.8973 102.778 91.7006 103.227L91.3266 103.376L90.8779 103.676C88.3349 101.656 85.5675 97.6173 85.7171 93.1297C85.7171 92.0826 84.2212 94.3264 84.1465 97.393C84.0717 100.534 84.8944 103.152 86.4651 105.396L84.1465 105.77C83.6977 105.919 83.0246 105.77 81.9774 105.097C80.332 104.05 79.7336 102.554 79.6588 102.255C79.4345 101.806 79.2101 104.349 80.706 106.892C78.8361 107.266 75.62 107.565 75.246 107.34C75.3956 102.778 73.2266 99.562 72.9274 98.5149V97.9165L73.3762 97.8417C74.3485 97.8417 78.4622 98.2905 82.6506 94.7004C86.4651 91.5591 87.9609 87.969 91.6258 84.9024C93.4208 83.4066 95.3655 82.0603 97.9085 81.1628C98.7312 80.8636 100.152 80.5644 100.227 80.5644L100.152 80.714C99.0304 82.9578 100.9 83.8553 101.723 82.7334L102.022 82.3595C103.144 80.0409 104.415 78.545 107.258 77.4231C108.006 77.0491 109.576 76.6004 110.249 76.6752C110.399 76.6752 110.549 76.8247 110.549 77.0491C110.773 79.2181 111.147 85.6504 106.51 87.4454C105.163 87.8194 106.659 88.1934 107.632 88.1186C109.875 87.969 111.446 86.3983 112.119 84.5285C114.587 86.0991 120.346 91.1851 121.169 100.235C121.842 106.144 120.571 112.501 118.402 116.166ZM88.6341 92.1575C88.6341 90.6616 89.8308 89.5397 90.9527 89.5397C92.0746 89.4649 93.1965 90.8112 93.1217 92.3071C93.1217 93.6533 91.9998 94.7752 90.6535 94.7004C89.4568 94.7004 88.6341 93.429 88.6341 92.1575Z" fill="var(--fill-0, white)"/>
</g>
</g>
<defs>
<filter id="filter0_di_0_25" x="0" y="0" width="196" height="196" filterUnits="userSpaceOnUse" color-interpolation-filters="sRGB">
<feFlood flood-opacity="0" result="BackgroundImageFix"/>
<feColorMatrix in="SourceAlpha" type="matrix" values="0 0 0 0 0 0 0 0 0 0 0 0 0 0 0 0 0 0 127 0" result="hardAlpha"/>
<feOffset/>
<feGaussianBlur stdDeviation="24"/>
<feComposite in2="hardAlpha" operator="out"/>
<feColorMatrix type="matrix" values="0 0 0 0 0 0 0 0 0 0 0 0 0 0 0 0 0 0 0.1 0"/>
<feBlend mode="normal" in2="BackgroundImageFix" result="effect1_dropShadow_0_25"/>
<feBlend mode="normal" in="SourceGraphic" in2="effect1_dropShadow_0_25" result="shape"/>
<feColorMatrix in="SourceAlpha" type="matrix" values="0 0 0 0 0 0 0 0 0 0 0 0 0 0 0 0 0 0 127 0" result="hardAlpha"/>
<feOffset/>
<feGaussianBlur stdDeviation="2"/>
<feComposite in2="hardAlpha" operator="arithmetic" k2="-1" k3="1"/>
<feColorMatrix type="matrix" values="0 0 0 0 1 0 0 0 0 1 0 0 0 0 1 0 0 0 0.55 0"/>
<feBlend mode="normal" in2="shape" result="effect2_innerShadow_0_25"/>
</filter>
</defs>
</svg>
