<svg preserveAspectRatio="none" width="100%" height="100%" overflow="visible" style="display: block;" viewBox="0 0 48 48" fill="none" xmlns="http://www.w3.org/2000/svg">
<g id="Frame">
<path id="Vector" d="M16.5 21C16.5 20.6022 16.658 20.2206 16.9393 19.9393C17.2206 19.658 17.6022 19.5 18 19.5H33C33.3978 19.5 33.7794 19.658 34.0607 19.9393C34.342 20.2206 34.5 20.6022 34.5 21C34.5 21.3978 34.342 21.7794 34.0607 22.0607C33.7794 22.342 33.3978 22.5 33 22.5H18C17.6022 22.5 17.2206 22.342 16.9393 22.0607C16.658 21.7794 16.5 21.3978 16.5 21ZM18 28.5H33C33.3978 28.5 33.7794 28.342 34.0607 28.0607C34.342 27.7794 34.5 27.3978 34.5 27C34.5 26.6022 34.342 26.2206 34.0607 25.9393C33.7794 25.658 33.3978 25.5 33 25.5H18C17.6022 25.5 17.2206 25.658 16.9393 25.9393C16.658 26.2206 16.5 26.6022 16.5 27C16.5 27.3978 16.658 27.7794 16.9393 28.0607C17.2206 28.342 17.6022 28.5 18 28.5ZM43.5 12V34.5C43.5 35.6935 43.0259 36.8381 42.182 37.682C41.3381 38.5259 40.1935 39 39 39H6C4.81009 39 3.66861 38.5287 2.82529 37.6893C1.98197 36.8498 1.50545 35.7105 1.5 34.5206V16.5C1.5 16.1022 1.65804 15.7206 1.93934 15.4393C2.22064 15.158 2.60218 15 3 15C3.39782 15 3.77936 15.158 4.06066 15.4393C4.34196 15.7206 4.5 16.1022 4.5 16.5V34.5C4.5 34.8978 4.65804 35.2794 4.93934 35.5607C5.22064 35.842 5.60218 36 6 36C6.39782 36 6.77936 35.842 7.06066 35.5607C7.34196 35.2794 7.5 34.8978 7.5 34.5V12C7.5 11.2044 7.81607 10.4413 8.37868 9.87868C8.94129 9.31607 9.70435 9 10.5 9H40.5C41.2956 9 42.0587 9.31607 42.6213 9.87868C43.1839 10.4413 43.5 11.2044 43.5 12ZM40.5 12H10.5V34.5C10.5007 35.011 10.4139 35.5184 10.2431 36H39C39.3978 36 39.7794 35.842 40.0607 35.5607C40.342 35.2794 40.5 34.8978 40.5 34.5V12Z" fill="var(--fill-0, #041b20)"/>
</g>
</svg>
