<svg preserveAspectRatio="none" width="100%" height="100%" overflow="visible" style="display: block;" viewBox="0 0 48 48" fill="none" xmlns="http://www.w3.org/2000/svg">
<g id="Frame">
<path id="Vector" d="M33.0005 30.0001C31.9998 29.9998 31.0093 30.2003 30.0876 30.5897C29.1658 30.979 28.3316 31.5494 27.6342 32.267L18.9905 26.7114C19.6704 24.9678 19.6704 23.0325 18.9905 21.2889L27.6342 15.7333C28.9326 17.0632 30.6785 17.8637 32.5335 17.9796C34.3886 18.0954 36.2205 17.5183 37.6742 16.3602C39.1279 15.202 40.0998 13.5454 40.4015 11.7114C40.7031 9.87738 40.313 7.9967 39.3069 6.43397C38.3007 4.87124 36.7501 3.73778 34.9557 3.25336C33.1612 2.76894 31.2509 2.96806 29.595 3.81212C27.939 4.65618 26.6555 6.08505 25.9932 7.82169C25.3309 9.55833 25.3371 11.479 26.0105 13.2114L17.3667 18.767C16.3258 17.6984 14.9899 16.9645 13.5298 16.659C12.0696 16.3536 10.5516 16.4905 9.16962 17.0523C7.7877 17.6141 6.6047 18.5753 5.77185 19.8129C4.939 21.0505 4.49414 22.5084 4.49414 24.0001C4.49414 25.4919 4.939 26.9498 5.77185 28.1874C6.6047 29.425 7.7877 30.3862 9.16962 30.948C10.5516 31.5098 12.0696 31.6467 13.5298 31.3413C14.9899 31.0358 16.3258 30.3019 17.3667 29.2333L26.0105 34.7889C25.4314 36.2824 25.3457 37.922 25.7659 39.4677C26.1862 41.0135 27.0902 42.384 28.3458 43.3787C29.6013 44.3735 31.1423 44.9401 32.7432 44.9956C34.344 45.0512 35.9206 44.5927 37.2421 43.6874C38.5635 42.7821 39.5604 41.4775 40.0868 39.9646C40.6131 38.4518 40.6413 36.8101 40.1671 35.2801C39.693 33.7501 38.7414 32.412 37.4518 31.4619C36.1622 30.5118 34.6023 29.9995 33.0005 30.0001ZM33.0005 6.00015C33.8905 6.00015 34.7605 6.26407 35.5005 6.75853C36.2405 7.253 36.8173 7.9558 37.1579 8.77807C37.4985 9.60034 37.5876 10.5051 37.414 11.3781C37.2404 12.251 36.8118 13.0528 36.1824 13.6821C35.5531 14.3115 34.7513 14.74 33.8784 14.9137C33.0054 15.0873 32.1006 14.9982 31.2784 14.6576C30.4561 14.317 29.7533 13.7402 29.2588 13.0002C28.7644 12.2602 28.5005 11.3902 28.5005 10.5001C28.5005 9.30667 28.9746 8.16208 29.8185 7.31817C30.6624 6.47425 31.807 6.00015 33.0005 6.00015ZM12.0005 28.5001C11.1104 28.5001 10.2404 28.2362 9.50038 27.7418C8.76036 27.2473 8.18359 26.5445 7.84299 25.7222C7.5024 24.9 7.41328 23.9952 7.58692 23.1222C7.76055 22.2493 8.18913 21.4475 8.81847 20.8182C9.44781 20.1888 10.2496 19.7602 11.1225 19.5866C11.9955 19.413 12.9003 19.5021 13.7225 19.8427C14.5448 20.1833 15.2476 20.7601 15.7421 21.5001C16.2365 22.2401 16.5005 23.1101 16.5005 24.0001C16.5005 25.1936 16.0263 26.3382 15.1824 27.1821C14.3385 28.026 13.1939 28.5001 12.0005 28.5001ZM33.0005 42.0001C32.1104 42.0001 31.2404 41.7362 30.5004 41.2418C29.7604 40.7473 29.1836 40.0445 28.843 39.2222C28.5024 38.4 28.4133 37.4952 28.5869 36.6222C28.7606 35.7493 29.1891 34.9475 29.8185 34.3182C30.4478 33.6888 31.2496 33.2602 32.1225 33.0866C32.9955 32.913 33.9003 33.0021 34.7225 33.3427C35.5448 33.6833 36.2476 34.2601 36.7421 35.0001C37.2365 35.7401 37.5005 36.6101 37.5005 37.5001C37.5005 38.6936 37.0263 39.8382 36.1824 40.6821C35.3385 41.526 34.1939 42.0001 33.0005 42.0001Z" fill="var(--fill-0, #220C01)"/>
</g>
</svg>
