<svg preserveAspectRatio="none" width="100%" height="100%" overflow="visible" style="display: block;" viewBox="0 0 48 48" fill="none" xmlns="http://www.w3.org/2000/svg">
<g id="Frame">
<path id="Vector" d="M45 39.0001H42V18.0001C42 17.2045 41.6839 16.4414 41.1213 15.8788C40.5587 15.3162 39.7956 15.0001 39 15.0001H27V6.00012C27.0004 5.45686 26.8532 4.92371 26.5742 4.45756C26.2952 3.99141 25.8949 3.60976 25.416 3.35335C24.937 3.09694 24.3974 2.9754 23.8548 3.00168C23.3122 3.02797 22.7869 3.20111 22.335 3.50262L7.335 13.5001C6.92351 13.7747 6.58629 14.1467 6.35337 14.5831C6.12046 15.0195 5.99906 15.5067 6 16.0014V39.0001H3C2.60218 39.0001 2.22064 39.1582 1.93934 39.4395C1.65804 39.7208 1.5 40.1023 1.5 40.5001C1.5 40.8979 1.65804 41.2795 1.93934 41.5608C2.22064 41.8421 2.60218 42.0001 3 42.0001H45C45.3978 42.0001 45.7794 41.8421 46.0607 41.5608C46.342 41.2795 46.5 40.8979 46.5 40.5001C46.5 40.1023 46.342 39.7208 46.0607 39.4395C45.7794 39.1582 45.3978 39.0001 45 39.0001ZM39 18.0001V39.0001H27V18.0001H39ZM9 16.0014L24 6.00012V39.0001H9V16.0014ZM21 21.0001V24.0001C21 24.3979 20.842 24.7795 20.5607 25.0608C20.2794 25.3421 19.8978 25.5001 19.5 25.5001C19.1022 25.5001 18.7206 25.3421 18.4393 25.0608C18.158 24.7795 18 24.3979 18 24.0001V21.0001C18 20.6023 18.158 20.2208 18.4393 19.9395C18.7206 19.6582 19.1022 19.5001 19.5 19.5001C19.8978 19.5001 20.2794 19.6582 20.5607 19.9395C20.842 20.2208 21 20.6023 21 21.0001ZM15 21.0001V24.0001C15 24.3979 14.842 24.7795 14.5607 25.0608C14.2794 25.3421 13.8978 25.5001 13.5 25.5001C13.1022 25.5001 12.7206 25.3421 12.4393 25.0608C12.158 24.7795 12 24.3979 12 24.0001V21.0001C12 20.6023 12.158 20.2208 12.4393 19.9395C12.7206 19.6582 13.1022 19.5001 13.5 19.5001C13.8978 19.5001 14.2794 19.6582 14.5607 19.9395C14.842 20.2208 15 20.6023 15 21.0001ZM15 31.5001V34.5001C15 34.8979 14.842 35.2795 14.5607 35.5608C14.2794 35.8421 13.8978 36.0001 13.5 36.0001C13.1022 36.0001 12.7206 35.8421 12.4393 35.5608C12.158 35.2795 12 34.8979 12 34.5001V31.5001C12 31.1023 12.158 30.7208 12.4393 30.4395C12.7206 30.1582 13.1022 30.0001 13.5 30.0001C13.8978 30.0001 14.2794 30.1582 14.5607 30.4395C14.842 30.7208 15 31.1023 15 31.5001ZM21 31.5001V34.5001C21 34.8979 20.842 35.2795 20.5607 35.5608C20.2794 35.8421 19.8978 36.0001 19.5 36.0001C19.1022 36.0001 18.7206 35.8421 18.4393 35.5608C18.158 35.2795 18 34.8979 18 34.5001V31.5001C18 31.1023 18.158 30.7208 18.4393 30.4395C18.7206 30.1582 19.1022 30.0001 19.5 30.0001C19.8978 30.0001 20.2794 30.1582 20.5607 30.4395C20.842 30.7208 21 31.1023 21 31.5001Z" fill="var(--fill-0, #041b20)"/>
</g>
</svg>
