<svg preserveAspectRatio="none" width="100%" height="100%" overflow="visible" style="display: block;" viewBox="0 0 48 48" fill="none" xmlns="http://www.w3.org/2000/svg">
<g id="Frame">
<path id="Vector" d="M21.9837 29.6102C23.9941 28.2718 25.5204 26.3219 26.3369 24.049C27.1534 21.7761 27.2168 19.3007 26.5177 16.989C25.8186 14.6772 24.394 12.6519 22.4548 11.2123C20.5155 9.77283 18.1645 8.99561 15.7494 8.99561C13.3342 8.99561 10.9832 9.77283 9.04393 11.2123C7.10468 12.6519 5.68016 14.6772 4.98103 16.989C4.2819 19.3007 4.34528 21.7761 5.16179 24.049C5.97831 26.3219 7.50461 28.2718 9.51499 29.6102C5.87841 30.9505 2.77268 33.4307 0.661236 36.6808C0.550265 36.8457 0.473185 37.0311 0.434475 37.2261C0.395766 37.421 0.396199 37.6218 0.43575 37.8166C0.475302 38.0114 0.553181 38.1964 0.664863 38.3609C0.776545 38.5253 0.9198 38.6659 1.0863 38.7745C1.25281 38.8831 1.43923 38.9575 1.63475 38.9935C1.83027 39.0294 2.03097 39.0261 2.2252 38.9837C2.41943 38.9414 2.60331 38.8609 2.76614 38.7469C2.92898 38.6328 3.06753 38.4876 3.17374 38.3195C4.53572 36.2248 6.3994 34.5034 8.59556 33.3118C10.7917 32.1201 13.2507 31.496 15.7494 31.496C18.248 31.496 20.707 32.1201 22.9032 33.3118C25.0993 34.5034 26.963 36.2248 28.325 38.3195C28.545 38.6465 28.8848 38.8738 29.2711 38.9522C29.6573 39.0306 30.0589 38.9539 30.389 38.7386C30.7191 38.5233 30.9512 38.1867 31.0351 37.8016C31.119 37.4166 31.048 37.0139 30.8375 36.6808C28.726 33.4307 25.6203 30.9505 21.9837 29.6102ZM7.49936 20.2502C7.49936 18.6185 7.98321 17.0234 8.88974 15.6667C9.79626 14.31 11.0847 13.2526 12.5922 12.6282C14.0997 12.0037 15.7585 11.8404 17.3589 12.1587C18.9592 12.477 20.4292 13.2628 21.583 14.4165C22.7368 15.5703 23.5225 17.0403 23.8408 18.6407C24.1592 20.241 23.9958 21.8998 23.3714 23.4073C22.7469 24.9148 21.6895 26.2033 20.3328 27.1098C18.9761 28.0163 17.3811 28.5002 15.7494 28.5002C13.5621 28.4977 11.4651 27.6277 9.91847 26.0811C8.37183 24.5344 7.50184 22.4374 7.49936 20.2502ZM46.9006 38.7564C46.5674 38.9737 46.1616 39.0497 45.7723 38.9678C45.3831 38.8859 45.0423 38.6527 44.825 38.3195C43.4646 36.2235 41.6012 34.5014 39.4046 33.3102C37.208 32.1191 34.7481 31.4968 32.2494 31.5002C31.8515 31.5002 31.47 31.3421 31.1887 31.0608C30.9074 30.7795 30.7494 30.398 30.7494 30.0002C30.7494 29.6023 30.9074 29.2208 31.1887 28.9395C31.47 28.6582 31.8515 28.5002 32.2494 28.5002C33.4643 28.499 34.664 28.2296 35.7627 27.711C36.8614 27.1925 37.8321 26.4377 38.6053 25.5005C39.3785 24.5633 39.9351 23.467 40.2355 22.2898C40.5359 21.1125 40.5725 19.8835 40.3428 18.6904C40.1131 17.4974 39.6227 16.3698 38.9068 15.3883C38.1908 14.4067 37.2668 13.5954 36.2009 13.0124C35.1351 12.4293 33.9535 12.0888 32.7408 12.0153C31.5281 11.9418 30.3141 12.137 29.1856 12.587C29.0016 12.6666 28.8035 12.7084 28.6031 12.7101C28.4026 12.7118 28.2039 12.6733 28.0186 12.5969C27.8332 12.5205 27.6651 12.4077 27.5241 12.2652C27.3831 12.1227 27.2721 11.9534 27.1977 11.7673C27.1232 11.5812 27.0869 11.382 27.0907 11.1816C27.0945 10.9812 27.1385 10.7835 27.22 10.6004C27.3014 10.4172 27.4188 10.2523 27.5651 10.1153C27.7115 9.97826 27.8838 9.87197 28.0719 9.80267C30.6546 8.77264 33.5273 8.73557 36.1357 9.69862C38.7442 10.6617 40.9036 12.5566 42.1974 15.0178C43.4911 17.4791 43.8276 20.3322 43.1418 23.0269C42.456 25.7216 40.7966 28.0668 38.4837 29.6102C42.1203 30.9505 45.226 33.4307 47.3375 36.6808C47.5548 37.014 47.6308 37.4198 47.5489 37.8091C47.4669 38.1983 47.2338 38.5391 46.9006 38.7564Z" fill="var(--fill-0, #220C01)"/>
</g>
</svg>
