<svg preserveAspectRatio="none" width="100%" height="100%" overflow="visible" style="display: block;" viewBox="0 0 18 18" fill="none" xmlns="http://www.w3.org/2000/svg">
<g id="Frame">
<path id="Vector" d="M3.65627 10.125H2.53127C2.38209 10.125 2.23902 10.1843 2.13353 10.2898C2.02804 10.3953 1.96877 10.5383 1.96877 10.6875V14.625C1.96877 14.7742 2.02804 14.9173 2.13353 15.0228C2.23902 15.1282 2.38209 15.1875 2.53127 15.1875H3.65627C4.3276 15.1875 4.97144 14.9208 5.44614 14.4461C5.92084 13.9714 6.18752 13.3276 6.18752 12.6563C6.18752 11.9849 5.92084 11.3411 5.44614 10.8664C4.97144 10.3917 4.3276 10.125 3.65627 10.125ZM3.65627 14.0625H3.09377V11.25H3.65627C4.02924 11.25 4.38692 11.3982 4.65064 11.6619C4.91437 11.9256 5.06252 12.2833 5.06252 12.6563C5.06252 13.0292 4.91437 13.3869 4.65064 13.6506C4.38692 13.9144 4.02924 14.0625 3.65627 14.0625ZM15.5764 13.7173C15.6841 13.8204 15.7465 13.9621 15.7498 14.1113C15.7531 14.2604 15.697 14.4047 15.5939 14.5125C15.3981 14.7234 15.1612 14.892 14.8979 15.008C14.6346 15.1241 14.3503 15.1852 14.0625 15.1875C12.8215 15.1875 11.8125 14.052 11.8125 12.6563C11.8125 11.2606 12.8215 10.125 14.0625 10.125C14.3503 10.1273 14.6346 10.1884 14.8979 10.3045C15.1612 10.4206 15.3981 10.5892 15.5939 10.8C15.6948 10.9082 15.749 11.0518 15.7448 11.1997C15.7405 11.3475 15.6782 11.4878 15.5714 11.59C15.4645 11.6923 15.3216 11.7483 15.1737 11.746C15.0258 11.7437 14.8848 11.6832 14.7811 11.5777C14.6898 11.4772 14.579 11.3963 14.4555 11.34C14.332 11.2837 14.1983 11.2531 14.0625 11.25C13.4424 11.25 12.9375 11.8828 12.9375 12.6563C12.9375 13.4297 13.4424 14.0625 14.0625 14.0625C14.1983 14.0595 14.332 14.0289 14.4555 13.9725C14.579 13.9162 14.6898 13.8353 14.7811 13.7349C14.8842 13.6271 15.026 13.5647 15.1751 13.5614C15.3242 13.5581 15.4686 13.6142 15.5764 13.7173ZM9.00002 10.125C7.75901 10.125 6.75002 11.2606 6.75002 12.6563C6.75002 14.052 7.75901 15.1875 9.00002 15.1875C10.241 15.1875 11.25 14.052 11.25 12.6563C11.25 11.2606 10.241 10.125 9.00002 10.125ZM9.00002 14.0625C8.37987 14.0625 7.87502 13.4297 7.87502 12.6563C7.87502 11.8828 8.37987 11.25 9.00002 11.25C9.62018 11.25 10.125 11.8828 10.125 12.6563C10.125 13.4297 9.62018 14.0625 9.00002 14.0625ZM3.37502 8.43751C3.52421 8.43751 3.66728 8.37825 3.77277 8.27276C3.87826 8.16727 3.93752 8.0242 3.93752 7.87501V2.81251H10.125V6.18751C10.125 6.3367 10.1843 6.47977 10.2898 6.58526C10.3953 6.69075 10.5383 6.75001 10.6875 6.75001H14.0625V7.87501C14.0625 8.0242 14.1218 8.16727 14.2273 8.27276C14.3328 8.37825 14.4758 8.43751 14.625 8.43751C14.7742 8.43751 14.9173 8.37825 15.0228 8.27276C15.1283 8.16727 15.1875 8.0242 15.1875 7.87501V6.18751C15.1876 6.11362 15.1731 6.04044 15.1449 5.97216C15.1166 5.90388 15.0752 5.84182 15.023 5.78954L11.0855 1.85204C11.0332 1.79983 10.9712 1.75842 10.9029 1.73019C10.8346 1.70196 10.7614 1.68746 10.6875 1.68751H3.93752C3.63916 1.68751 3.35301 1.80604 3.14203 2.01702C2.93105 2.228 2.81252 2.51414 2.81252 2.81251V7.87501C2.81252 8.0242 2.87179 8.16727 2.97728 8.27276C3.08277 8.37825 3.22584 8.43751 3.37502 8.43751ZM11.25 3.60775L13.2673 5.62501H11.25V3.60775Z" fill="var(--fill-0, #041b20)" fill-opacity="0.7"/>
</g>
</svg>
