<svg width="36.8755" height="32" overflow="visible" style="display: block;" viewBox="0 0 36.8755 32" fill="none" xmlns="http://www.w3.org/2000/svg">
<g id="Frame 5">
<g id="Vector">
<path d="M36.1774 19.335L36.8755 19.4846C36.7757 14.7975 34.6815 11.1077 32.5873 8.76416C30.892 6.81953 29.1468 5.82229 27.9501 4.92477L27.8504 1.8333C27.8504 0.786195 27.4515 0.487021 26.6038 0.586745C26.1551 0.636608 25.3074 0.786195 24.4099 1.08537C24.011 1.23496 22.9639 1.73358 22.9639 1.73358L22.6647 0.586745C22.4154 -0.260914 21.5179 -0.0116023 20.7699 0.237709C20.022 0.536883 18.925 1.08537 17.7283 2.28206L16.6314 3.57848C15.9333 3.87766 15.1854 4.27656 14.4873 4.77518C12.2435 6.37077 11.1465 7.91651 10.0495 9.61182C9.65064 10.2102 8.90271 11.2074 8.05505 12.0052C6.6589 13.2518 4.66441 14.4983 2.76964 14.5482C1.97184 14.5981 1.42336 14.1992 0.924734 14.249C0.475974 14.3487 0.0770754 14.7476 0.0272131 15.2961C-0.172236 16.8917 0.775148 17.5898 1.22391 19.1854C1.47322 20.033 1.62281 21.1799 1.52308 22.4763C1.47322 23.2242 1.87212 23.8724 2.91923 23.9223C3.76689 23.9722 5.66165 23.7727 6.11041 23.7727C6.21014 23.7727 6.40959 23.8226 6.45945 23.8226C6.75863 24.5207 6.45945 25.9168 7.50656 26.3157C8.30436 26.6149 8.75312 26.0165 10.0495 25.7174C11.3958 25.3185 12.9914 25.468 13.6396 25.5179C15.3848 25.6176 17.2297 25.7174 20.6203 25.3185C21.5179 25.1689 23.0137 25.3683 24.4597 25.8669C26.2049 26.4154 27.9501 27.4625 29.6454 28.7091C30.8421 29.6565 31.5901 30.554 32.0388 32C33.1857 31.4515 35.1801 29.5568 36.0777 26.1661C36.7757 23.2741 36.5763 21.0802 36.1774 19.335ZM32.0388 28.1107C29.3463 25.5678 26.4044 24.2713 23.3628 23.7727L22.1661 23.5733C22.7146 23.0746 23.3129 21.9777 23.2631 20.9306C23.2631 20.033 23.1135 20.1826 23.0137 20.3322C22.4653 21.0303 21.6176 21.6785 20.7201 22.2769C18.6259 23.4735 17.2297 23.7727 14.4374 23.8226L12.9914 23.7727C10.4983 23.7727 9.7005 24.0719 8.75312 24.4708L8.10491 24.7201C7.95532 24.4708 7.15752 22.4763 10.6479 22.2769L12.1438 22.1771C13.3903 22.0774 14.6369 21.7782 15.0358 21.2297C15.9333 20.2824 15.0358 19.1854 14.238 19.4846L13.9887 19.5843L13.6895 19.7837C11.9942 18.4375 10.1493 15.7449 10.249 12.7531C10.249 12.0551 9.25174 13.5509 9.20188 15.5953C9.15202 17.6895 9.7005 19.4347 10.7476 20.9306L9.20188 21.1799C8.9027 21.2796 8.45394 21.1799 7.75587 20.7311C6.6589 20.033 6.26 19.0358 6.21014 18.8364C6.06055 18.5372 5.91097 20.2325 6.90821 21.9278C5.66165 22.1771 3.51757 22.3766 3.26826 22.227C3.36799 19.1854 1.92198 17.0413 1.72253 16.3432V15.9443L2.02171 15.8945C2.66992 15.8945 5.41234 16.1936 8.20463 13.8003C10.7476 11.706 11.7449 9.31265 14.1881 7.2683C15.3848 6.27105 16.6812 5.37353 18.3765 4.77518C18.925 4.57573 19.8724 4.37628 19.9223 4.37628L19.8724 4.47601C19.1245 5.97188 20.371 6.57022 20.9195 5.82229L21.119 5.57298C21.8669 4.02725 22.7146 3.03 24.6093 2.28206C25.108 2.03275 26.1551 1.73358 26.6038 1.78344C26.7036 1.78344 26.8033 1.88317 26.8033 2.03275C26.9529 3.47876 27.2022 7.76692 24.1107 8.96361C23.2132 9.21293 24.2104 9.46224 24.8586 9.41237C26.3545 9.31265 27.4016 8.26554 27.8504 7.01898C29.4958 8.06609 33.3352 11.4567 33.8837 17.4901C34.3325 21.4292 33.4848 25.6675 32.0388 28.1107Z" fill="white"/>
<path d="M13.7394 10.3598C12.9914 10.3598 12.1936 11.1077 12.1936 12.105C12.1936 12.9526 12.7421 13.8003 13.5399 13.8003C14.4374 13.8502 15.1854 13.1022 15.1854 12.2047C15.2352 11.2075 14.4873 10.3099 13.7394 10.3598Z" fill="white"/>
<path fill-rule="evenodd" clip-rule="evenodd" d="M32.0388 28.1107C29.3463 25.5678 26.4044 24.2713 23.3628 23.7727L22.1661 23.5733C22.7146 23.0746 23.3129 21.9777 23.2631 20.9306C23.2631 20.033 23.1135 20.1826 23.0137 20.3322C22.4653 21.0303 21.6176 21.6785 20.7201 22.2769C18.6259 23.4735 17.2297 23.7727 14.4374 23.8226L12.9914 23.7727C10.4983 23.7727 9.7005 24.0719 8.75312 24.4708L8.10491 24.7201C7.95532 24.4708 7.15752 22.4763 10.6479 22.2769L12.1438 22.1771C13.3903 22.0774 14.6369 21.7782 15.0358 21.2297C15.9333 20.2824 15.0358 19.1854 14.238 19.4846L13.9887 19.5843L13.6895 19.7837C11.9942 18.4375 10.1493 15.7449 10.249 12.7531C10.249 12.0551 9.25174 13.5509 9.20188 15.5953C9.15202 17.6895 9.7005 19.4347 10.7476 20.9306L9.20188 21.1799C8.9027 21.2796 8.45394 21.1799 7.75587 20.7311C6.6589 20.033 6.26 19.0358 6.21014 18.8364C6.06055 18.5372 5.91097 20.2325 6.90821 21.9278C5.66165 22.1771 3.51757 22.3766 3.26826 22.227C3.36799 19.1854 1.92198 17.0413 1.72253 16.3432V15.9443L2.02171 15.8945C2.66992 15.8945 5.41234 16.1936 8.20463 13.8003C10.7476 11.706 11.7449 9.31265 14.1881 7.2683C15.3848 6.27105 16.6812 5.37353 18.3765 4.77518C18.925 4.57573 19.8724 4.37628 19.9223 4.37628L19.8724 4.47601C19.1245 5.97188 20.371 6.57022 20.9195 5.82229L21.119 5.57298C21.8669 4.02725 22.7146 3.03 24.6093 2.28206C25.108 2.03275 26.1551 1.73358 26.6038 1.78344C26.7036 1.78344 26.8033 1.88317 26.8033 2.03275C26.9529 3.47876 27.2022 7.76692 24.1107 8.96361C23.2132 9.21293 24.2104 9.46224 24.8586 9.41237C26.3545 9.31265 27.4016 8.26554 27.8504 7.01898C29.4958 8.06609 33.3352 11.4567 33.8837 17.4901C34.3325 21.4292 33.4848 25.6675 32.0388 28.1107ZM12.1936 12.105C12.1936 11.1077 12.9914 10.3598 13.7394 10.3598C14.4873 10.3099 15.2352 11.2075 15.1854 12.2047C15.1854 13.1022 14.4374 13.8502 13.5399 13.8003C12.7421 13.8003 12.1936 12.9526 12.1936 12.105Z" fill="var(--fill-0, white)"/>
</g>
</g>
</svg>
