<svg preserveAspectRatio="none" width="100%" height="100%" overflow="visible" style="display: block;" viewBox="0 0 102.857 102.857" fill="none" xmlns="http://www.w3.org/2000/svg">
<g id="Frame">
<path id="Vector" d="M96.428 51.4286C96.428 52.2811 96.0894 53.0987 95.4866 53.7015C94.8838 54.3043 94.0662 54.6429 93.2137 54.6429H82.3414L67.1619 85.0099C66.8947 85.5439 66.484 85.9929 65.9759 86.3066C65.4678 86.6203 64.8823 86.7862 64.2852 86.7858H64.1244C63.501 86.7549 62.8999 86.5432 62.3948 86.1765C61.8896 85.8097 61.5022 85.3039 61.2798 84.7206L38.3097 24.4125L25.4244 52.7585C25.1692 53.3202 24.7576 53.7966 24.239 54.1307C23.7203 54.4648 23.1164 54.6427 22.4994 54.6429H9.6423C8.78982 54.6429 7.97225 54.3043 7.36946 53.7015C6.76666 53.0987 6.42801 52.2811 6.42801 51.4286C6.42801 50.5761 6.76666 49.7586 7.36946 49.1558C7.97225 48.553 8.78982 48.2143 9.6423 48.2143H20.4302L35.6459 14.7416C35.9082 14.1639 36.3356 13.6768 36.8742 13.3417C37.4128 13.0065 38.0385 12.8381 38.6726 12.8579C39.3067 12.8777 39.9208 13.0846 40.4375 13.4527C40.9542 13.8208 41.3504 14.3335 41.5762 14.9264L64.6829 75.596L77.4798 49.9983C77.7459 49.4627 78.1561 49.0121 78.6643 48.6969C79.1725 48.3818 79.7586 48.2146 80.3566 48.2143H93.2137C94.0662 48.2143 94.8838 48.553 95.4866 49.1558C96.0894 49.7586 96.428 50.5761 96.428 51.4286Z" fill="var(--fill-0, #220C01)"/>
</g>
</svg>
